# xmcd CD database file
#
# Track frame offsets:
#	187
#	15875
#	33487
#	53162
#	73175
#	89825
#	108487
#	124362
#	150287
#	185850
#
# Disc length: 2691 seconds
#
# Revision: 0
# Processed by: cddbd v1.5PL3 Copyright (c) Steve Scherf et al.
# Submitted via: CDex 1.51
#
DISCID=870a810a
DTITLE=Junior Mance - Junior Mance and His Swinging Piano
DYEAR=1959
DGENRE=Jazz
TTITLE0=A Smooth One
TTITLE1=Miss Jackie's Delight
TTITLE2=Whisper Not
TTITLE3=Love For Sale
TTITLE4=Lilacs In the Rain
TTITLE5=Small Fry
TTITLE6=Jubilation
TTITLE7=Birk's Works
TTITLE8=Blues For Beverlee
TTITLE9=Junior's Tune
EXTD=YEAR: 1959
EXTT0=
EXTT1=
EXTT2=
EXTT3=
EXTT4=
EXTT5=
EXTT6=
EXTT7=
EXTT8=
EXTT9=
PLAYORDER=
